<?xml version="1.0" encoding="utf-8"?><svg id="Layer_1" xmlns="http://www.w3.org/2000/svg" viewBox="0 0 978 412"><style>.st0{fill:#a4387a}.st5{fill:#b9002b}.st6{fill:#d9912a}.st7{fill:#e3b5b6}</style><g id="Capa_16"><path class="st0" d="M481.5 102.4c-1.9 2-4.1 3.5-6.6 4.5 10.5 1.5 18.4 5.2 23.8 11.1 5.4 5.9 8.2 13.1 8.2 21.7 0 10.3-4.2 18.7-12.5 25.1s-19.3 9.6-32.8 9.6-24.2-3.3-31.8-10c-7.7-6.7-11.5-16.1-11.5-28.2v-1.9l1.8-.3c2.1 15.9 8.7 26.2 19.8 30.9V71.8c-.2-2.9-1.3-5.3-3.3-7.1-2-1.9-4.3-2.8-7.1-2.8h-1.9v-1.6h26.9c10 0 18.1 2.3 24.1 6.9 6 4.6 9 10.6 9 18 0 7.2-2 13-6.1 17.2zm-31.2-37.1v102.4c3.5.5 7.6.8 12.2.8 10.2 0 18.2-2.7 23.9-8.2 5.7-5.5 8.6-12.6 8.6-21.4 0-4.7-.9-8.9-2.6-12.5-1.8-3.6-4-6.5-6.6-8.5-7-5.4-17-8.2-29.8-8.2h-.2l-.2-1.4h.2c5.4 0 10.1-1.8 14-5.4 3.9-3.6 5.8-9.1 5.8-16.6 0-14.1-7.7-21.1-23.2-21.1l-2.1.1zM605.6 82.5h-2.1c-1.8 0-3.4.6-4.7 1.8s-2.1 2.6-2.1 4.4V140c0 10.1-3.2 18.3-9.6 24.6-6.4 6.2-15 9.4-25.6 9.4-10.7 0-19.3-3.1-25.9-9.3-6.6-6.2-9.9-14.4-9.9-24.5V89c0-2.6-1.1-4.5-3.4-5.7-1-.5-2.2-.8-3.5-.8h-2.1v-1.3h26.4v1.3H541c-1.9 0-3.5.6-4.8 1.8s-2 2.7-2.1 4.5v49.7c0 9.4 2.5 17.1 7.6 22.9 5.1 5.8 11.8 8.7 20.3 8.7s15.4-2.8 20.7-8.3 7.9-12.7 7.9-21.6V88.8c-.1-1.8-.8-3.3-2.1-4.5s-2.9-1.8-4.8-1.8h-2.1v-1.3h24v1.3zM618.9 170.9c2.3 0 4.2-.8 5.8-2.4s2.4-3.5 2.5-5.8V89.9c0-2.1-.8-3.8-2.5-5.3-1.6-1.4-3.6-2.1-5.8-2.1h-1.6l-.1-1.3h38.1c2.7 0 5.6-.3 8.8-.8s5.4-1 6.7-1.6v16.4h-1.3v-2.3c0-2.1-.7-3.9-2.1-5.3-1.4-1.5-3.1-2.3-5.1-2.3h-26.5v40.2h22c1.7-.1 3.2-.7 4.4-2 1.2-1.2 1.8-2.7 1.8-4.5v-2h1.3v20.5H664v-1.9c0-1.7-.6-3.2-1.8-4.4s-2.6-1.9-4.4-1.9h-22.1v38.9h18.6c6.4 0 11.3-1.4 14.7-4.3 3.4-2.9 6.2-7.1 8.5-12.7h1.3l-7.5 21.1h-54V171h1.6v-.1zM783 82.5c-2.2 0-4 .8-5.6 2.3s-2.4 3.4-2.5 5.5v67.1c0 5 .3 9.8.9 14.3l.3 2.3h-1.2l-70.8-75.7V163c0 2.2.8 4 2.3 5.5 1.6 1.5 3.4 2.3 5.6 2.3h2.5v1.3h-26.8v-1.3h2.5c2.2 0 4-.8 5.6-2.3s2.3-3.4 2.3-5.7V95.3c0-5.3-.3-10-.9-14.2l-.3-2.1h1.3l70.9 75.7V90.2c-.1-2.3-.9-4.1-2.5-5.7-1.6-1.5-3.4-2.3-5.6-2.3h-2.5v-1.3h26.8v1.3H783v.3zM805.1 92.4c9.3-8.7 21.3-13.1 36.1-13.1s26.8 4.4 36.1 13.1 13.9 20.1 13.9 34.3c0 14.1-4.6 25.5-13.9 34.3-9.3 8.6-21.3 13-36.1 13s-26.8-4.4-36.1-13.1-13.9-20.1-13.9-34.3c0-14.1 4.6-25.5 13.9-34.2zm7.1 65.7c7.3 8 17 12 28.9 12s21.6-4 28.9-12c7.3-8 11-18.5 11-31.5s-3.7-23.5-11-31.5-17-12-28.9-12-21.6 4-28.9 12c-7.3 8-11 18.5-11 31.5s3.7 23.5 11 31.5zM901.6 166.8c-.3-1.2-.4-3.6-.4-7 0-3.5.7-7.1 2-11h1.2c-.1 1-.1 1.9-.1 2.9 0 5.3 1.6 9.7 4.8 13.2s7.5 5.3 12.7 5.3c5.5 0 9.9-1.6 13.5-4.9 3.5-3.3 5.3-7.4 5.3-12.4s-1.7-9-5.1-12.2l-25-23.1c-4.7-4.3-7-9.6-7-15.7 0-6.2 2.1-11.4 6.2-15.8s9.7-6.6 16.7-6.6c3.3 0 7 .4 11.2 1.3h5.1v16h-1.2c0-4.1-1.4-7.3-4.2-9.8-2.8-2.4-6.4-3.6-10.9-3.6s-8.1 1.5-11.1 4.4-4.5 6.6-4.5 11 1.7 8.2 5.2 11.4l25.6 23.7c4.3 4 6.5 9.4 6.5 16.4 0 6.9-2.2 12.6-6.6 17.1-4.4 4.5-10.3 6.7-17.7 6.7-3.8 0-7.9-.6-12.2-1.8s-7.7-3.1-10-5.5z" /><g><path class="st0" d="M439.2 185.7c6.9-2.9 13.6-4.3 20-4.3 5.3 0 10.8 2 16.5 5.9 3.1 2.1 6.6 6.3 10.4 12.5 2.6 4.3 5.8 12 9.8 23.2l19.5 55.4c4.5 12.4 9 22.2 13.7 29.5s8.9 12.8 12.7 16.5 7.8 6.3 12 7.8 7.6 2.2 10.3 2.2 5.1-.2 7.3-.6l.2 1.6c-5.1 1.7-10.1 2.6-15 2.6s-9.8-1.3-14.7-3.8-9.5-6-13.8-10.5c-9.2-9.3-17-23.4-23.4-42.4l-6.2-18.2h-43.8l-11 28.5c-.5 1.3-.8 2.6-.8 3.8s.6 2.6 1.7 4.1c1.1 1.4 2.9 2.2 5.2 2.2h1.3v1.6h-32.2v-1.6h1.4c2.6 0 5.1-.8 7.5-2.3 2.5-1.5 4.5-3.9 6.1-7l39.7-95c-5.8-8.2-12.9-12.3-21.4-12.3-3.8 0-7.9.8-12.3 2.4l-.7-1.8zm17.1 72.5h40.5l-12.6-37.3c-2.5-7.1-4.7-12.7-6.7-16.8l-21.2 54.1z" /><path class="st0" d="M540.4 301.9c2.3 0 4.2-.8 5.8-2.4s2.4-3.5 2.5-5.8v-72.2c-.1-2.3-.9-4.2-2.5-5.7-1.6-1.6-3.5-2.3-5.8-2.3h-1.7v-1.3h28.5v1.3h-1.7c-2.3 0-4.2.8-5.8 2.3-1.6 1.6-2.4 3.5-2.5 5.7v72.2c0 2.3.8 4.2 2.5 5.8 1.6 1.6 3.6 2.4 5.8 2.4h1.7v1.3h-28.5v-1.3h1.7zM606.8 216.2h-8.3v77.5c0 2.3.8 4.2 2.4 5.8 1.6 1.6 3.6 2.4 5.9 2.4h1.6l.1 1.3H580v-1.3h1.7c2.3 0 4.2-.8 5.8-2.3 1.6-1.6 2.4-3.5 2.5-5.7v-72.1c-.1-2.3-.9-4.2-2.5-5.8-1.6-1.6-3.5-2.4-5.8-2.4H580v-1.3h35.1c7.9 0 14.1 2.2 18.6 6.6s6.8 10.1 6.8 17c0 7-2.1 13-6.4 18.1s-9.5 7.6-15.7 7.6c1.3.6 2.8 1.8 4.6 3.6 1.8 1.8 3.4 3.6 4.7 5.5 7.5 10.7 12.3 17.2 14.6 19.7s3.9 4.2 4.8 5.1c1 .9 2 1.8 3.1 2.7 1.1.9 2.3 1.6 3.4 2.1 2.5 1.2 5.2 1.8 8.1 1.8v1.3h-7.2c-3.7 0-7.2-.7-10.4-2s-5.6-2.7-7.2-4.2c-1.6-1.4-3-2.8-4.2-4.2-1.2-1.3-4.4-5.8-9.7-13.5-5.3-7.6-8.4-12-9.2-13.1-.9-1.1-1.8-2.1-2.7-3.2-2.8-2.9-5.5-4.4-8.3-4.4v-1.3c.7.1 1.6.1 2.7.1s2.5 0 4.2-.1c10.7-.3 17.5-4.8 20.3-13.5.5-1.7.8-3.4.8-4.9v-2.9c-.2-5.8-1.7-10.5-4.5-14-2.9-3.6-6.7-5.5-11.6-5.7-2.2-.3-4.8-.3-7.9-.3z" /><path class="st0" d="M663.2 301.9c2.3 0 4.2-.8 5.8-2.4s2.4-3.5 2.5-5.8v-72.8c0-2.1-.8-3.8-2.5-5.3-1.6-1.4-3.6-2.1-5.8-2.1h-1.6l-.1-1.3h38.1c2.7 0 5.6-.3 8.8-.8s5.4-1 6.7-1.6v16.4h-1.3v-2.3c0-2.1-.7-3.9-2.1-5.3-1.4-1.5-3.1-2.3-5.1-2.3H680v40.2h22c1.7-.1 3.2-.7 4.4-2 1.2-1.2 1.8-2.7 1.8-4.5v-2h1.3v20.5h-1.3v-2c0-1.7-.6-3.2-1.8-4.4-1.2-1.2-2.6-1.9-4.4-1.9h-22v38.9h18.6c6.4 0 11.3-1.4 14.7-4.3s6.2-7.1 8.5-12.7h1.3l-7.5 21.1h-54v-1.3h1.6zM734.1 297.8c-.3-1.2-.4-3.6-.4-7 0-3.5.7-7.1 2-11h1.2c-.1 1-.1 1.9-.1 2.9 0 5.3 1.6 9.7 4.8 13.2s7.5 5.3 12.7 5.3c5.5 0 9.9-1.6 13.5-4.9 3.5-3.3 5.3-7.4 5.3-12.4s-1.7-9-5.1-12.2l-25-23.1c-4.7-4.3-7-9.6-7-15.7 0-6.2 2.1-11.4 6.2-15.8s9.7-6.6 16.7-6.6c3.3 0 7 .4 11.2 1.3h5.1v16H774c0-4.1-1.4-7.3-4.2-9.8-2.8-2.4-6.4-3.6-10.9-3.6s-8.1 1.5-11.1 4.4-4.5 6.6-4.5 11 1.7 8.2 5.2 11.4l25.6 23.7c4.3 4 6.5 9.4 6.5 16.4 0 6.9-2.2 12.6-6.6 17.1-4.4 4.5-10.3 6.7-17.7 6.7-3.8 0-7.9-.6-12.2-1.8s-7.7-3-10-5.5z" /></g><g><path class="st0" d="M822.5 260.4c4.7 0 8.5 1.1 11.3 3.2s4.2 5.1 4.2 8.8c0 3.2-1.2 6.4-3.5 9.7-.8 1.2-1.6 2.2-2.2 3-.6.8-1.5 1.8-2.7 3s-2.1 2.1-2.8 2.7-1.7 1.5-3 2.6-2.3 1.9-2.8 2.3-1.4 1.1-2.8 2.1c-1.3 1-2.1 1.6-2.3 1.8h16.4c2 0 3.6-.4 4.7-1.1 1.1-.7 2.3-2.1 3.6-4.1h.7l-3.4 9.1h-29.1v-.6c15.9-13.1 23.9-23.1 23.9-30.2 0-3.2-.9-5.7-2.7-7.5s-4.2-2.7-7.2-2.7c-3.5 0-6.2.8-8.2 2.4s-2.9 3.9-2.8 6.8h-.7l-1.2-7.1c1.3-1.2 3.2-2.1 5.6-2.9 2.3-1 4.7-1.3 7-1.3zM852.5 266.4c3.7-4 8.5-6.1 14.5-6.1s10.8 2 14.5 6.1c3.7 4 5.5 9.3 5.5 15.9s-1.8 11.9-5.5 15.9-8.5 6.1-14.5 6.1-10.8-2-14.5-6.1c-3.7-4-5.5-9.3-5.5-15.9s1.8-11.8 5.5-15.9zm25.3 1.5c-2.8-3.6-6.4-5.5-10.9-5.5s-8.2 1.8-10.9 5.5-4.1 8.4-4.1 14.4 1.4 10.8 4.1 14.4 6.4 5.5 10.9 5.5c3 0 5.6-.8 7.9-2.5 2.3-1.7 4-4 5.3-7 1.2-3 1.9-6.5 1.9-10.4 0-5.9-1.4-10.7-4.2-14.4zM900.4 298.9v-33.1c0-1-.4-1.9-1.2-2.6s-1.7-1.1-2.7-1.1H895v-.7h15.1v.7h-1.5c-1 0-1.9.4-2.7 1.1-.7.7-1.1 1.6-1.1 2.7v33c0 1.4.7 2.5 2 3.3.6.3 1.2.5 1.9.5h1.5v.7H895l.1-.7h1.5c1 0 1.9-.4 2.7-1.1.7-.8 1.1-1.7 1.1-2.7zM930.5 289.7c-4.7 0-8.1-1.9-10.3-5.7-1.2-2.2-1.8-4.9-1.8-8 0-4.5 1.4-8.2 4.1-11.1 2.8-2.9 6.5-4.4 11.2-4.4s8.4 1.8 11.2 5.3 4.3 8.5 4.3 14.9c0 6.1-1.2 11.7-3.6 16.9-2.7 5.9-6.4 10.2-11.2 12.7-2.7 1.4-5.6 2.3-8.7 2.6l-.2-.5c3.2-.9 6-2.4 8.4-4.4 2.4-2.1 4.4-4.6 5.8-7.5 2.8-5.6 4.3-11.8 4.3-18.3 0-13.1-3.6-19.6-10.8-19.6-3.2 0-5.5 1.2-7.1 3.6s-2.3 5.4-2.3 9c0 3.7.8 6.6 2.5 8.8 1.7 2.2 3.9 3.3 6.8 3.3 2.1 0 4-.6 5.7-1.8.8-.5 1.5-1.1 2.2-1.9l.3.6c-1.4 1.7-3 3.1-4.9 4-2.1 1-4 1.5-5.9 1.5z" /></g></g><path d="M267.1 333.6s7.2-8.7 18.4-4.7l13.7 27.3-23.7 11.3-8.4-33.9z" fill="#5f773a" id="Capa_9" /><path d="M595.1 383.9l-4.1-1.3s-1.3-2.7-5.2-3.2l-3.7-1.2s-.5-1.8-1.8-1.7-1.3.2-1.3.2-.7-1.7-2.8-1.8c0 0-3.8-2-7.4-1l-.7-.3s2.8-13.6-13.5-14.1c0 0-14.8 3.5-10.3 13.7 0 0-.1 2.7-.3 5.2 0 0-7.4.2-9.4-6 0 0-3.7-6.2-8.2-3.5 0 0-5 .5-1.2-1.7 0 0 6.7-5.5-3.3-8.4 0 0-2.3-7.4-9.2-6.2 0 0-6.7-6.7-14.4 3.2 0 0-4.3 2.2-6-1.5 0 0-6.2-8-12.9-1.3 0 0-2.2-.7-1.7-4 0 0-6-6-13.9-6.9 0 0-.5-2.7-8.2-2.2s-.7-.1-.7-.1.5-2.2-6.9-4.6c-1-.3-4-1.3-6.5-.8 0 0-5-4.2-12.9.8 0 0-1 2-2.8 0 0 0-3.7-4.3-10.4-.3 0 0-5.5.5-7.9 4.2 0 0-1.7 2-2.7-.3 0 0-5-3.5-11.5-1 0 0-2.7 2-4-.7 0 0-10.4-20.2-28.6-4.3 0 0-8.7 6.8-13.5 0 0 0-11.4-12.2-22.9-3.3 0 0-1.8 3-4.8 1.3 0 0-7 0-6.9 7 0 0-6.5-5.7-11.3 3 0 0-3.9 12 6 11.4 0 0-.2 6.7-5 5.9 0 0-14.8-10.1-21.2 2.9 0 0-7.7 11.8-18 7 0 0 4.7-11.2-9.4-17.3 0 0-28.6-6.5-24.3 14.1 0 0-4.9 4-6.9 1.5 0 0-4.8-1.7-9 2l-4.8.7s-6.5 1.2-8.5 6.5c0 0-10.4.8-14.9 6.2 0 0-6.2 3.4-8.5 2.3h418.3v-.1z" fill="#d1da6e" /><path d="M347 383.2l2.5-.8s.8-1.6 3.1-1.9l2.2-.7s.3-1.1 1.1-1l.8.1s.4-1 1.7-1.1c0 0 2.3-1.2 4.4-.6l.4-.2s.9-7.9 10.1-7.7c0 0 6 2.3 3.2 8.5 0 0 1.1.6 1.2 2.1 0 0 4.4.1 5.7-3.6 0 0 2.2-3.7 4.9-2.1 0 0 3 .3.7-1 0 0-4-3.3 2-5 0 0 1.4-4.4 5.6-3.7 0 0 4-4 8.7 1.9 0 0 2.6 1.3 3.6-.9 0 0 3.7-4.8 7.8-.8 0 0 1.3-.4 1-2.4 0 0 3.6-3.6 8.4-4.1 0 0 .3-1.6 4.9-1.3 4.6.3.4 0 .4 0s-.3-1.3 4.1-2.8c.6-.2 2.4-.8 3.9-.5 0 0 3-2.5 7.8.5 0 0 .6 1.2 1.7 0 0 0 2.2-2.6 6.3-.2 0 0 3.3.3 4.7 2.5 0 0 1 1.2 1.6-.2 0 0 3-2.1 7-.6 0 0 1.6 1.2 2.4-.4 0 0 6.3-12.2 17.3-2.6 0 0 5.2 6.7 8.1 2.6 0 0 2.6-2.7 6.2 0 0 0 .1 4.4 1.9 3.4 0 0 5-1.2 4.9 3 0 0 1.4 1.2 5.3 3.5 0 0 2.3 2.9 3 5 0 0 3-1.7 5.9-2.2 0 0 9-6.1 12.8 1.7 0 0 4.7 7.1 10.8 4.3 0 0-.6-5.9 5.9-7 0 0 15.6-3.3 14.3 4.6 0 0 3.1 2.9 4.4 1.4 0 0 2.9-1 5.5 1.2l2.9.4s3.9.7 5.2 3.9c0 0 6.3.5 9 3.7 0 0 3.7 2 5.2 1.4H347v-.3z" fill="#a3b434" /><path d="M174.2 347.8s-6.2-2.4-4.4-2.5c0 0 35.6 1 62.9-27.9l8.8 4.3c0-.1-7.3 45.8-67.3 26.1z" fill="#e3b6b7" /><path class="st5" d="M240.8 321.6c-6.3 20.5-24.2 37-73.2 23.4 0 0 57.3 28.7 90.2-15.2l-17-8.2z" /><path class="st6" d="M203.9 145.8s57 35.8 63.2 130l-3.8 1.9s-2.2-85.5-61-129.3l1.6-2.6z" /><path class="st6" d="M212.1 170.4s18.5 23.4 48.9 110.5l-4.7 1.2s-13.6-53.3-46.3-110l2.1-1.7zM199.5 167.8s3.4 28.4 48.2 116.1l5.4-.9s-32.5-51.1-51.4-115.8l-2.2.6z" /><path class="st6" d="M240.1 287.3s-46.3-41.1-56.2-150.7l4.2-.6s7.7 103.4 56 149.6l-3.4 1.8" /><path class="st6" d="M177.8 136.4s3.4 2.3 15.5-.8l.3-1s-6-11.1-16 .4l.2 1.4zM195.3 151.8s10.7-.1 10-11.6c0 0-.1-2.5-3.2-2.5 0 0-9.9 2.7-8.4 12.1 0 0-.1 1.3 1.6 2zM205.4 174.3s8.7 1.8 10.1-7.6c0 0 .3-2-2.2-2.6 0 0-8.5.4-8.9 8.3 0 0-.3 1 1 1.9zM194.7 167.2s6.6 4.3 10.8-3c0 0 .9-1.6-.9-2.8 0 0-7.1-2.4-10.1 3.9.1 0-.5.8.2 1.9z" /><path class="st7" d="M53.6 226l-23.8-13.3s32.5 106.5 121.7 122.1c0 0 71.8 2.8 81.8-36.2 0 0-14.5 11.2-42.5 15.1C152.4 319.2 89 300.2 53.6 226z" /><path class="st5" d="M290.8 318.2s36.2 3.4 65.1-41.6c0 0-27.7 23.5-51.9 15l-13.2 26.6z" /><path class="st7" d="M143.5 230.2s36.5-4.3 40.4-4.1c0 0 4.5-.9 8.7 6.4 0 0 28.4 47.7 42.9 54.5.1-.1-50.4 28.5-92-56.8zM284 273.5s8 18.7 28 20.6c0 0 74 5.9 59-97.4 0 0-1.3-11.7-19.5-8.5 0 0-3.5 50.9-67.5 85.3z" /><linearGradient id="SVGID_1_" gradientUnits="userSpaceOnUse" x1="357.992" y1="156.242" x2="306.701" y2="314.098" gradientTransform="matrix(1 0 0 -1 0 423.465)"><stop offset="0" stop-color="#b9002b" /><stop offset=".015" stop-color="#b9002b" /><stop offset=".107" stop-color="#b9002b" /><stop offset=".41" stop-color="#e7c3b4" /><stop offset=".471" stop-color="#e7c3b4" /><stop offset=".524" stop-color="#e7c3b4" /><stop offset=".533" stop-color="#e7c3b4" /><stop offset=".579" stop-color="#e3b9a8" /><stop offset=".66" stop-color="#dba18c" /><stop offset=".768" stop-color="#ce7d67" /><stop offset=".897" stop-color="#be4038" /><stop offset=".934" stop-color="#b9002b" /><stop offset="1" stop-color="#b8002f" /></linearGradient><path d="M284.7 277.7s106.8-.1 78.3-165.2l11.4-25.1s1.9-1.2 2.6 2.5c.8 3.7 61.4 167.5-68.1 192.1.1 0-11.3 3.8-24.2-4.3z" fill="url(#SVGID_1_)" /><linearGradient id="SVGID_2_" gradientUnits="userSpaceOnUse" x1="172.743" y1="99.133" x2="91.809" y2="321.497" gradientTransform="matrix(1 0 0 -1 0 423.465)"><stop offset="0" stop-color="#b9002b" /><stop offset=".02" stop-color="#b9002b" /><stop offset=".14" stop-color="#b9002b" /><stop offset=".253" stop-color="#c14d3f" /><stop offset=".27" stop-color="#c7624f" /><stop offset=".317" stop-color="#d38a74" /><stop offset=".357" stop-color="#dda894" /><stop offset=".39" stop-color="#e4bbab" /><stop offset=".41" stop-color="#e7c3b4" /><stop offset=".471" stop-color="#e7c3b4" /><stop offset=".526" stop-color="#e7c3b4" /><stop offset=".535" stop-color="#e7c3b4" /><stop offset=".553" stop-color="#e3b9a9" /><stop offset=".678" stop-color="#d0836e" /><stop offset=".783" stop-color="#c45a4a" /><stop offset=".861" stop-color="#bc3336" /><stop offset=".904" stop-color="#b8002e" /><stop offset=".926" stop-color="#b8002f" /><stop offset="1" stop-color="#b9002b" /></linearGradient><path d="M81.9 110.2s-21.3.2-33.4 8.8-30.1 35-9 78.2S73.6 299.1 163 313.9c0 0 55.3 10.8 82.9-29.4 0 0-59.6 22.3-95.5-42.6L92.2 121.8c0-.1-4.5-12-10.3-11.6z" fill="url(#SVGID_2_)" /><linearGradient id="SVGID_3_" gradientUnits="userSpaceOnUse" x1="315.434" y1="151.816" x2="272.367" y2="396.062" gradientTransform="matrix(1 0 0 -1 0 423.465)"><stop offset="0" stop-color="#b9002b" /><stop offset=".02" stop-color="#b9002b" /><stop offset=".14" stop-color="#b9002b" /><stop offset=".253" stop-color="#c14d3f" /><stop offset=".27" stop-color="#c7624f" /><stop offset=".317" stop-color="#d38a74" /><stop offset=".357" stop-color="#dda894" /><stop offset=".39" stop-color="#e4bbab" /><stop offset=".41" stop-color="#e7c3b4" /><stop offset=".471" stop-color="#e7c3b4" /><stop offset=".526" stop-color="#e7c3b4" /><stop offset=".535" stop-color="#e7c3b4" /><stop offset=".553" stop-color="#e3b9a9" /><stop offset=".678" stop-color="#d0836e" /><stop offset=".783" stop-color="#c45a4a" /><stop offset=".861" stop-color="#bc3336" /><stop offset=".904" stop-color="#b8002e" /><stop offset=".926" stop-color="#b8002f" /><stop offset="1" stop-color="#b9002b" /></linearGradient><path d="M254.6 281.9s26.2-10.3 21.7-35S228.7 71 228.7 71s-6.7-20.5-6.8-25.4c0 0 .2-10.1 30.9-14.7s73-1.2 84 35.3c0 0 27.1 64.6 14.6 129.8-.1 0-13.1 78.3-96.8 85.9z" fill="url(#SVGID_3_)" /><linearGradient id="SVGID_4_" gradientUnits="userSpaceOnUse" x1="157.882" y1="69.328" x2="103.504" y2="236.685" gradientTransform="matrix(1 0 0 -1 0 423.465)"><stop offset="0" stop-color="#b9002b" /><stop offset=".015" stop-color="#b9002b" /><stop offset=".107" stop-color="#b9002b" /><stop offset=".41" stop-color="#e7c3b4" /><stop offset=".471" stop-color="#e7c3b4" /><stop offset=".524" stop-color="#e7c3b4" /><stop offset=".533" stop-color="#e7c3b4" /><stop offset=".579" stop-color="#e3b9a8" /><stop offset=".66" stop-color="#dba18c" /><stop offset=".768" stop-color="#ce7d67" /><stop offset=".897" stop-color="#be4038" /><stop offset=".934" stop-color="#b9002b" /><stop offset="1" stop-color="#b8002f" /></linearGradient><path d="M29.8 212.7s-2.4-2.4-4.2-.1c-1.9 2.5 43.4 123.1 128 133 0 0 61.3 3.9 78.7-27.9 1.2-2.2-3.4-4.9-6.8-5.4 0 0-52.7 47.7-125.8-.9 0 .2-37.5-20.5-69.9-98.7z" fill="url(#SVGID_4_)" /><path d="M270.2 331.7l-31-42.1s-13.2 6.1-16.2 23.1l44.4 22.3c0-.1 2.2 0 2.8-3.3z" fill="#808e2f" /><path d="M270.2 331.7l-31-42.1s11.1-11.5 26.5-9l9.9 49.6c-.1 0-2 3.2-5.4 1.5z" fill="#8f9e2e" /><path d="M265.6 280.5s9.2-10.9 27.8-3.7l-12.5 52.8s-2.5 2.7-5.4.5l-9.9-49.6z" fill="#9dae2e" /><path d="M280.9 329.6l12.5-52.8s11.8-2 14.6 5.9l-22.3 46.6c0 .1-1.7 1.7-4.8.3z" fill="#abbe2e" /></svg>